<mxfile host="app.diagrams.net" modified="2023-07-12T08:07:30.140Z" agent="Mozilla/5.0 (Windows NT 10.0; Win64; x64) AppleWebKit/537.36 (KHTML, like Gecko) Chrome/114.0.0.0 Safari/537.36" etag="vLanlYg_Tqi6vnB7hK5h" version="21.6.2" type="google" pages="5">
  <diagram name="Đăng nhập" id="BsAqp4Kh7XyIPcNQ35Ld">
    <mxGraphModel grid="0" page="0" gridSize="10" guides="1" tooltips="1" connect="1" arrows="1" fold="1" pageScale="1" pageWidth="827" pageHeight="1169" math="0" shadow="0">
      <root>
        <mxCell id="0" />
        <mxCell id="1" parent="0" />
        <mxCell id="7mTEcm8Iy-RyOE04JHFI-5" value="" style="shape=umlLifeline;perimeter=lifelinePerimeter;whiteSpace=wrap;html=1;container=1;dropTarget=0;collapsible=0;recursiveResize=0;outlineConnect=0;portConstraint=eastwest;newEdgeStyle={&quot;edgeStyle&quot;:&quot;elbowEdgeStyle&quot;,&quot;elbow&quot;:&quot;vertical&quot;,&quot;curved&quot;:0,&quot;rounded&quot;:0};participant=umlActor;" vertex="1" parent="1">
          <mxGeometry x="190" y="74" width="20" height="543" as="geometry" />
        </mxCell>
        <mxCell id="7mTEcm8Iy-RyOE04JHFI-9" value="" style="html=1;points=[];perimeter=orthogonalPerimeter;outlineConnect=0;targetShapes=umlLifeline;portConstraint=eastwest;newEdgeStyle={&quot;edgeStyle&quot;:&quot;elbowEdgeStyle&quot;,&quot;elbow&quot;:&quot;vertical&quot;,&quot;curved&quot;:0,&quot;rounded&quot;:0};" vertex="1" parent="7mTEcm8Iy-RyOE04JHFI-5">
          <mxGeometry x="5" y="77" width="10" height="44" as="geometry" />
        </mxCell>
        <mxCell id="7mTEcm8Iy-RyOE04JHFI-6" value="" style="shape=umlLifeline;perimeter=lifelinePerimeter;whiteSpace=wrap;html=1;container=1;dropTarget=0;collapsible=0;recursiveResize=0;outlineConnect=0;portConstraint=eastwest;newEdgeStyle={&quot;edgeStyle&quot;:&quot;elbowEdgeStyle&quot;,&quot;elbow&quot;:&quot;vertical&quot;,&quot;curved&quot;:0,&quot;rounded&quot;:0};participant=umlBoundary;" vertex="1" parent="1">
          <mxGeometry x="343" y="74" width="50" height="543" as="geometry" />
        </mxCell>
        <mxCell id="7mTEcm8Iy-RyOE04JHFI-11" value="" style="html=1;points=[];perimeter=orthogonalPerimeter;outlineConnect=0;targetShapes=umlLifeline;portConstraint=eastwest;newEdgeStyle={&quot;edgeStyle&quot;:&quot;elbowEdgeStyle&quot;,&quot;elbow&quot;:&quot;vertical&quot;,&quot;curved&quot;:0,&quot;rounded&quot;:0};" vertex="1" parent="7mTEcm8Iy-RyOE04JHFI-6">
          <mxGeometry x="20" y="77" width="10" height="437" as="geometry" />
        </mxCell>
        <mxCell id="7mTEcm8Iy-RyOE04JHFI-7" value="" style="shape=umlLifeline;perimeter=lifelinePerimeter;whiteSpace=wrap;html=1;container=1;dropTarget=0;collapsible=0;recursiveResize=0;outlineConnect=0;portConstraint=eastwest;newEdgeStyle={&quot;edgeStyle&quot;:&quot;elbowEdgeStyle&quot;,&quot;elbow&quot;:&quot;vertical&quot;,&quot;curved&quot;:0,&quot;rounded&quot;:0};participant=umlEntity;" vertex="1" parent="1">
          <mxGeometry x="670" y="76" width="40" height="544" as="geometry" />
        </mxCell>
        <mxCell id="7mTEcm8Iy-RyOE04JHFI-20" value="" style="html=1;points=[];perimeter=orthogonalPerimeter;outlineConnect=0;targetShapes=umlLifeline;portConstraint=eastwest;newEdgeStyle={&quot;edgeStyle&quot;:&quot;elbowEdgeStyle&quot;,&quot;elbow&quot;:&quot;vertical&quot;,&quot;curved&quot;:0,&quot;rounded&quot;:0};" vertex="1" parent="7mTEcm8Iy-RyOE04JHFI-7">
          <mxGeometry x="15" y="171" width="10" height="64" as="geometry" />
        </mxCell>
        <mxCell id="7mTEcm8Iy-RyOE04JHFI-8" value="" style="shape=umlLifeline;perimeter=lifelinePerimeter;whiteSpace=wrap;html=1;container=1;dropTarget=0;collapsible=0;recursiveResize=0;outlineConnect=0;portConstraint=eastwest;newEdgeStyle={&quot;edgeStyle&quot;:&quot;elbowEdgeStyle&quot;,&quot;elbow&quot;:&quot;vertical&quot;,&quot;curved&quot;:0,&quot;rounded&quot;:0};participant=umlControl;" vertex="1" parent="1">
          <mxGeometry x="489" y="74" width="40" height="543" as="geometry" />
        </mxCell>
        <mxCell id="7mTEcm8Iy-RyOE04JHFI-17" value="" style="html=1;points=[];perimeter=orthogonalPerimeter;outlineConnect=0;targetShapes=umlLifeline;portConstraint=eastwest;newEdgeStyle={&quot;edgeStyle&quot;:&quot;elbowEdgeStyle&quot;,&quot;elbow&quot;:&quot;vertical&quot;,&quot;curved&quot;:0,&quot;rounded&quot;:0};" vertex="1" parent="7mTEcm8Iy-RyOE04JHFI-8">
          <mxGeometry x="15" y="120" width="10" height="392" as="geometry" />
        </mxCell>
        <mxCell id="6Rt5yTAlWfM2qNkReEiN-2" value="" style="html=1;points=[];perimeter=orthogonalPerimeter;outlineConnect=0;targetShapes=umlLifeline;portConstraint=eastwest;newEdgeStyle={&quot;edgeStyle&quot;:&quot;elbowEdgeStyle&quot;,&quot;elbow&quot;:&quot;vertical&quot;,&quot;curved&quot;:0,&quot;rounded&quot;:0};" vertex="1" parent="7mTEcm8Iy-RyOE04JHFI-8">
          <mxGeometry x="20" y="275" width="10" height="80" as="geometry" />
        </mxCell>
        <mxCell id="7mTEcm8Iy-RyOE04JHFI-10" value="Điền form đăng nhập" style="html=1;verticalAlign=bottom;endArrow=block;edgeStyle=elbowEdgeStyle;elbow=vertical;curved=0;rounded=0;" edge="1" parent="1">
          <mxGeometry width="80" relative="1" as="geometry">
            <mxPoint x="199" y="151" as="sourcePoint" />
            <mxPoint x="363" y="151" as="targetPoint" />
          </mxGeometry>
        </mxCell>
        <mxCell id="7mTEcm8Iy-RyOE04JHFI-16" value="Gửi request" style="html=1;verticalAlign=bottom;endArrow=block;edgeStyle=elbowEdgeStyle;elbow=vertical;curved=0;rounded=0;" edge="1" parent="1" target="7mTEcm8Iy-RyOE04JHFI-17">
          <mxGeometry width="80" relative="1" as="geometry">
            <mxPoint x="379" y="194" as="sourcePoint" />
            <mxPoint x="503" y="194" as="targetPoint" />
            <Array as="points">
              <mxPoint x="375" y="194" />
            </Array>
          </mxGeometry>
        </mxCell>
        <mxCell id="7mTEcm8Iy-RyOE04JHFI-18" value="Kiểm tra thông tin người dùng" style="html=1;verticalAlign=bottom;endArrow=block;edgeStyle=elbowEdgeStyle;elbow=vertical;curved=0;rounded=0;" edge="1" parent="1" target="7mTEcm8Iy-RyOE04JHFI-20">
          <mxGeometry width="80" relative="1" as="geometry">
            <mxPoint x="516" y="248" as="sourcePoint" />
            <mxPoint x="678" y="248" as="targetPoint" />
            <Array as="points">
              <mxPoint x="579" y="248" />
            </Array>
          </mxGeometry>
        </mxCell>
        <mxCell id="7mTEcm8Iy-RyOE04JHFI-23" value="Thông tin chi tiết người dùng" style="html=1;verticalAlign=bottom;endArrow=open;dashed=1;endSize=8;edgeStyle=elbowEdgeStyle;elbow=vertical;curved=0;rounded=0;" edge="1" parent="1" target="7mTEcm8Iy-RyOE04JHFI-17">
          <mxGeometry relative="1" as="geometry">
            <mxPoint x="665" y="299" as="sourcePoint" />
            <mxPoint x="518" y="299" as="targetPoint" />
            <Array as="points">
              <mxPoint x="686" y="299" />
            </Array>
          </mxGeometry>
        </mxCell>
        <mxCell id="7mTEcm8Iy-RyOE04JHFI-29" value="xác thực" style="html=1;align=left;spacingLeft=2;endArrow=block;rounded=0;edgeStyle=orthogonalEdgeStyle;curved=0;rounded=0;" edge="1" parent="1" source="7mTEcm8Iy-RyOE04JHFI-17">
          <mxGeometry relative="1" as="geometry">
            <mxPoint x="524" y="327" as="sourcePoint" />
            <Array as="points">
              <mxPoint x="537" y="327" />
              <mxPoint x="537" y="357" />
            </Array>
            <mxPoint x="517" y="357" as="targetPoint" />
          </mxGeometry>
        </mxCell>
        <mxCell id="7mTEcm8Iy-RyOE04JHFI-40" value="Hiển thị Homepage" style="html=1;verticalAlign=bottom;endArrow=open;dashed=1;endSize=8;edgeStyle=elbowEdgeStyle;elbow=vertical;curved=0;rounded=0;entryX=0.8;entryY=0.442;entryDx=0;entryDy=0;entryPerimeter=0;" edge="1" parent="1">
          <mxGeometry relative="1" as="geometry">
            <mxPoint x="503" y="410" as="sourcePoint" />
            <mxPoint x="371.0000000000002" y="410.01199999999994" as="targetPoint" />
          </mxGeometry>
        </mxCell>
        <mxCell id="7mTEcm8Iy-RyOE04JHFI-43" value="Người dùng" style="text;align=center;fontStyle=1;verticalAlign=middle;spacingLeft=3;spacingRight=3;strokeColor=none;rotatable=0;points=[[0,0.5],[1,0.5]];portConstraint=eastwest;html=1;" vertex="1" parent="1">
          <mxGeometry x="160" y="33" width="80" height="26" as="geometry" />
        </mxCell>
        <mxCell id="7mTEcm8Iy-RyOE04JHFI-44" value="Front-end web" style="text;align=center;fontStyle=1;verticalAlign=middle;spacingLeft=3;spacingRight=3;strokeColor=none;rotatable=0;points=[[0,0.5],[1,0.5]];portConstraint=eastwest;html=1;" vertex="1" parent="1">
          <mxGeometry x="328" y="33" width="80" height="26" as="geometry" />
        </mxCell>
        <mxCell id="7mTEcm8Iy-RyOE04JHFI-45" value="Back-end" style="text;align=center;fontStyle=1;verticalAlign=middle;spacingLeft=3;spacingRight=3;strokeColor=none;rotatable=0;points=[[0,0.5],[1,0.5]];portConstraint=eastwest;html=1;" vertex="1" parent="1">
          <mxGeometry x="469" y="33" width="80" height="26" as="geometry" />
        </mxCell>
        <mxCell id="7mTEcm8Iy-RyOE04JHFI-46" value="Người dùng" style="text;align=center;fontStyle=1;verticalAlign=middle;spacingLeft=3;spacingRight=3;strokeColor=none;rotatable=0;points=[[0,0.5],[1,0.5]];portConstraint=eastwest;html=1;" vertex="1" parent="1">
          <mxGeometry x="650" y="33" width="80" height="26" as="geometry" />
        </mxCell>
        <mxCell id="6Rt5yTAlWfM2qNkReEiN-1" value="alt" style="shape=umlFrame;whiteSpace=wrap;html=1;pointerEvents=0;" vertex="1" parent="1">
          <mxGeometry x="67" y="370" width="509" height="200" as="geometry" />
        </mxCell>
        <mxCell id="6Rt5yTAlWfM2qNkReEiN-3" value="" style="line;strokeWidth=1;fillColor=none;align=left;verticalAlign=middle;spacingTop=-1;spacingLeft=3;spacingRight=3;rotatable=0;labelPosition=right;points=[];portConstraint=eastwest;strokeColor=inherit;dashed=1;" vertex="1" parent="1">
          <mxGeometry x="66" y="466" width="509" height="8" as="geometry" />
        </mxCell>
        <mxCell id="6Rt5yTAlWfM2qNkReEiN-4" value="[Thông tin đăng nhập hợp lệ]" style="text;strokeColor=none;fillColor=none;align=left;verticalAlign=top;spacingLeft=4;spacingRight=4;overflow=hidden;rotatable=0;points=[[0,0.5],[1,0.5]];portConstraint=eastwest;whiteSpace=wrap;html=1;" vertex="1" parent="1">
          <mxGeometry x="68" y="397" width="100" height="45" as="geometry" />
        </mxCell>
        <mxCell id="6Rt5yTAlWfM2qNkReEiN-6" value="[Thông tin đăng nhập sai/không tồn tại]" style="text;strokeColor=none;fillColor=none;align=left;verticalAlign=top;spacingLeft=4;spacingRight=4;overflow=hidden;rotatable=0;points=[[0,0.5],[1,0.5]];portConstraint=eastwest;whiteSpace=wrap;html=1;" vertex="1" parent="1">
          <mxGeometry x="68" y="472" width="100" height="45" as="geometry" />
        </mxCell>
        <mxCell id="6Rt5yTAlWfM2qNkReEiN-7" value="Hiển thi yêu cầu nhập lại" style="html=1;verticalAlign=bottom;endArrow=open;dashed=1;endSize=8;edgeStyle=elbowEdgeStyle;elbow=vertical;curved=0;rounded=0;" edge="1" parent="1">
          <mxGeometry relative="1" as="geometry">
            <mxPoint x="503" y="516" as="sourcePoint" />
            <mxPoint x="372" y="516" as="targetPoint" />
          </mxGeometry>
        </mxCell>
      </root>
    </mxGraphModel>
  </diagram>
  <diagram id="B72YrYRX3QelonfeFib9" name="Tìm kiếm thông tin">
    <mxGraphModel grid="0" page="0" gridSize="10" guides="1" tooltips="1" connect="1" arrows="1" fold="1" pageScale="1" pageWidth="827" pageHeight="1169" math="0" shadow="0">
      <root>
        <mxCell id="0" />
        <mxCell id="1" parent="0" />
        <mxCell id="8xt1to1OYY3LX-tj91RV-1" value="" style="shape=umlLifeline;perimeter=lifelinePerimeter;whiteSpace=wrap;html=1;container=1;dropTarget=0;collapsible=0;recursiveResize=0;outlineConnect=0;portConstraint=eastwest;newEdgeStyle={&quot;edgeStyle&quot;:&quot;elbowEdgeStyle&quot;,&quot;elbow&quot;:&quot;vertical&quot;,&quot;curved&quot;:0,&quot;rounded&quot;:0};participant=umlActor;" vertex="1" parent="1">
          <mxGeometry x="190" y="74" width="20" height="543" as="geometry" />
        </mxCell>
        <mxCell id="8xt1to1OYY3LX-tj91RV-2" value="" style="html=1;points=[];perimeter=orthogonalPerimeter;outlineConnect=0;targetShapes=umlLifeline;portConstraint=eastwest;newEdgeStyle={&quot;edgeStyle&quot;:&quot;elbowEdgeStyle&quot;,&quot;elbow&quot;:&quot;vertical&quot;,&quot;curved&quot;:0,&quot;rounded&quot;:0};" vertex="1" parent="8xt1to1OYY3LX-tj91RV-1">
          <mxGeometry x="5" y="77" width="10" height="27" as="geometry" />
        </mxCell>
        <mxCell id="8xt1to1OYY3LX-tj91RV-4" value="" style="shape=umlLifeline;perimeter=lifelinePerimeter;whiteSpace=wrap;html=1;container=1;dropTarget=0;collapsible=0;recursiveResize=0;outlineConnect=0;portConstraint=eastwest;newEdgeStyle={&quot;edgeStyle&quot;:&quot;elbowEdgeStyle&quot;,&quot;elbow&quot;:&quot;vertical&quot;,&quot;curved&quot;:0,&quot;rounded&quot;:0};participant=umlBoundary;" vertex="1" parent="1">
          <mxGeometry x="343" y="74" width="50" height="543" as="geometry" />
        </mxCell>
        <mxCell id="8xt1to1OYY3LX-tj91RV-5" value="" style="html=1;points=[];perimeter=orthogonalPerimeter;outlineConnect=0;targetShapes=umlLifeline;portConstraint=eastwest;newEdgeStyle={&quot;edgeStyle&quot;:&quot;elbowEdgeStyle&quot;,&quot;elbow&quot;:&quot;vertical&quot;,&quot;curved&quot;:0,&quot;rounded&quot;:0};" vertex="1" parent="8xt1to1OYY3LX-tj91RV-4">
          <mxGeometry x="20" y="77" width="10" height="405" as="geometry" />
        </mxCell>
        <mxCell id="8xt1to1OYY3LX-tj91RV-8" value="" style="shape=umlLifeline;perimeter=lifelinePerimeter;whiteSpace=wrap;html=1;container=1;dropTarget=0;collapsible=0;recursiveResize=0;outlineConnect=0;portConstraint=eastwest;newEdgeStyle={&quot;edgeStyle&quot;:&quot;elbowEdgeStyle&quot;,&quot;elbow&quot;:&quot;vertical&quot;,&quot;curved&quot;:0,&quot;rounded&quot;:0};participant=umlEntity;" vertex="1" parent="1">
          <mxGeometry x="670" y="76" width="40" height="544" as="geometry" />
        </mxCell>
        <mxCell id="-8Cm8MUCN2n5K0u55irA-1" value="" style="html=1;points=[];perimeter=orthogonalPerimeter;outlineConnect=0;targetShapes=umlLifeline;portConstraint=eastwest;newEdgeStyle={&quot;edgeStyle&quot;:&quot;elbowEdgeStyle&quot;,&quot;elbow&quot;:&quot;vertical&quot;,&quot;curved&quot;:0,&quot;rounded&quot;:0};" vertex="1" parent="8xt1to1OYY3LX-tj91RV-8">
          <mxGeometry x="14" y="173" width="10" height="254" as="geometry" />
        </mxCell>
        <mxCell id="aTXySmLKoJwjpP2P8CQd-1" value="" style="html=1;points=[];perimeter=orthogonalPerimeter;outlineConnect=0;targetShapes=umlLifeline;portConstraint=eastwest;newEdgeStyle={&quot;edgeStyle&quot;:&quot;elbowEdgeStyle&quot;,&quot;elbow&quot;:&quot;vertical&quot;,&quot;curved&quot;:0,&quot;rounded&quot;:0};" vertex="1" parent="8xt1to1OYY3LX-tj91RV-8">
          <mxGeometry x="20" y="236" width="10" height="40" as="geometry" />
        </mxCell>
        <mxCell id="aTXySmLKoJwjpP2P8CQd-2" value="Tìm kiếm thông tin" style="html=1;align=left;spacingLeft=2;endArrow=block;rounded=0;edgeStyle=orthogonalEdgeStyle;curved=0;rounded=0;" edge="1" parent="8xt1to1OYY3LX-tj91RV-8" target="aTXySmLKoJwjpP2P8CQd-1">
          <mxGeometry relative="1" as="geometry">
            <mxPoint x="25" y="216" as="sourcePoint" />
            <Array as="points">
              <mxPoint x="55" y="246" />
            </Array>
          </mxGeometry>
        </mxCell>
        <mxCell id="8xt1to1OYY3LX-tj91RV-11" value="" style="shape=umlLifeline;perimeter=lifelinePerimeter;whiteSpace=wrap;html=1;container=1;dropTarget=0;collapsible=0;recursiveResize=0;outlineConnect=0;portConstraint=eastwest;newEdgeStyle={&quot;edgeStyle&quot;:&quot;elbowEdgeStyle&quot;,&quot;elbow&quot;:&quot;vertical&quot;,&quot;curved&quot;:0,&quot;rounded&quot;:0};participant=umlControl;" vertex="1" parent="1">
          <mxGeometry x="502" y="72" width="40" height="543" as="geometry" />
        </mxCell>
        <mxCell id="8xt1to1OYY3LX-tj91RV-12" value="" style="html=1;points=[];perimeter=orthogonalPerimeter;outlineConnect=0;targetShapes=umlLifeline;portConstraint=eastwest;newEdgeStyle={&quot;edgeStyle&quot;:&quot;elbowEdgeStyle&quot;,&quot;elbow&quot;:&quot;vertical&quot;,&quot;curved&quot;:0,&quot;rounded&quot;:0};" vertex="1" parent="8xt1to1OYY3LX-tj91RV-11">
          <mxGeometry x="15" y="120" width="10" height="363" as="geometry" />
        </mxCell>
        <mxCell id="8xt1to1OYY3LX-tj91RV-20" value="Nhập thông tin tìm kiếm" style="html=1;verticalAlign=bottom;endArrow=block;edgeStyle=elbowEdgeStyle;elbow=vertical;curved=0;rounded=0;" edge="1" parent="1" target="8xt1to1OYY3LX-tj91RV-4">
          <mxGeometry width="80" relative="1" as="geometry">
            <mxPoint x="199" y="151" as="sourcePoint" />
            <mxPoint x="279" y="151" as="targetPoint" />
          </mxGeometry>
        </mxCell>
        <mxCell id="8xt1to1OYY3LX-tj91RV-22" value="Tìm kiếm thông tin" style="html=1;verticalAlign=bottom;endArrow=block;edgeStyle=elbowEdgeStyle;elbow=vertical;curved=0;rounded=0;" edge="1" parent="1" target="8xt1to1OYY3LX-tj91RV-8">
          <mxGeometry width="80" relative="1" as="geometry">
            <mxPoint x="527" y="247" as="sourcePoint" />
            <mxPoint x="589" y="247" as="targetPoint" />
          </mxGeometry>
        </mxCell>
        <mxCell id="8xt1to1OYY3LX-tj91RV-23" value="Chuyển tiếp thông tin&amp;nbsp;" style="html=1;verticalAlign=bottom;endArrow=open;dashed=1;endSize=8;edgeStyle=elbowEdgeStyle;elbow=vertical;curved=0;rounded=0;" edge="1" parent="1">
          <mxGeometry relative="1" as="geometry">
            <mxPoint x="681.5" y="479" as="sourcePoint" />
            <mxPoint x="527" y="483" as="targetPoint" />
          </mxGeometry>
        </mxCell>
        <mxCell id="8xt1to1OYY3LX-tj91RV-27" value="Hiển thị thông tin" style="html=1;verticalAlign=bottom;endArrow=open;dashed=1;endSize=8;edgeStyle=elbowEdgeStyle;elbow=horizontal;curved=0;rounded=0;" edge="1" parent="1">
          <mxGeometry x="0.0037" relative="1" as="geometry">
            <mxPoint x="519.5" y="513" as="sourcePoint" />
            <mxPoint x="373" y="513" as="targetPoint" />
            <mxPoint as="offset" />
          </mxGeometry>
        </mxCell>
        <mxCell id="8xt1to1OYY3LX-tj91RV-28" value="Người dùng" style="text;align=center;fontStyle=1;verticalAlign=middle;spacingLeft=3;spacingRight=3;strokeColor=none;rotatable=0;points=[[0,0.5],[1,0.5]];portConstraint=eastwest;html=1;" vertex="1" parent="1">
          <mxGeometry x="160" y="33" width="80" height="26" as="geometry" />
        </mxCell>
        <mxCell id="8xt1to1OYY3LX-tj91RV-29" value="Front-end" style="text;align=center;fontStyle=1;verticalAlign=middle;spacingLeft=3;spacingRight=3;strokeColor=none;rotatable=0;points=[[0,0.5],[1,0.5]];portConstraint=eastwest;html=1;" vertex="1" parent="1">
          <mxGeometry x="328" y="33" width="80" height="26" as="geometry" />
        </mxCell>
        <mxCell id="8xt1to1OYY3LX-tj91RV-30" value="Back-end" style="text;align=center;fontStyle=1;verticalAlign=middle;spacingLeft=3;spacingRight=3;strokeColor=none;rotatable=0;points=[[0,0.5],[1,0.5]];portConstraint=eastwest;html=1;" vertex="1" parent="1">
          <mxGeometry x="469" y="33" width="80" height="26" as="geometry" />
        </mxCell>
        <mxCell id="8xt1to1OYY3LX-tj91RV-31" value="Database" style="text;align=center;fontStyle=1;verticalAlign=middle;spacingLeft=3;spacingRight=3;strokeColor=none;rotatable=0;points=[[0,0.5],[1,0.5]];portConstraint=eastwest;html=1;" vertex="1" parent="1">
          <mxGeometry x="650" y="33" width="80" height="26" as="geometry" />
        </mxCell>
        <mxCell id="pbC1KOaJQBFyQRU1pDh--1" value="Chuyển tiếp thông báo&amp;nbsp;" style="html=1;verticalAlign=bottom;endArrow=open;dashed=1;endSize=8;edgeStyle=elbowEdgeStyle;elbow=vertical;curved=0;rounded=0;" edge="1" parent="1">
          <mxGeometry relative="1" as="geometry">
            <mxPoint x="684.5" y="399" as="sourcePoint" />
            <mxPoint x="526" y="400" as="targetPoint" />
          </mxGeometry>
        </mxCell>
        <mxCell id="JXbVHaOfjFwEzTdur2j9-2" value="Hiển thị thông báo" style="html=1;verticalAlign=bottom;endArrow=open;dashed=1;endSize=8;edgeStyle=elbowEdgeStyle;elbow=horizontal;curved=0;rounded=0;entryX=0.9;entryY=0.622;entryDx=0;entryDy=0;entryPerimeter=0;" edge="1" parent="1">
          <mxGeometry x="0.0037" relative="1" as="geometry">
            <mxPoint x="519.5" y="428.05" as="sourcePoint" />
            <mxPoint x="373" y="428.00399999999985" as="targetPoint" />
            <mxPoint as="offset" />
          </mxGeometry>
        </mxCell>
        <mxCell id="7ilmfKL37a0saZsbiFLx-1" value="Tìm kiếm thông tin" style="html=1;verticalAlign=bottom;endArrow=block;edgeStyle=elbowEdgeStyle;elbow=vertical;curved=0;rounded=0;" edge="1" parent="1">
          <mxGeometry width="80" relative="1" as="geometry">
            <mxPoint x="374" y="191" as="sourcePoint" />
            <mxPoint x="515" y="191" as="targetPoint" />
          </mxGeometry>
        </mxCell>
        <mxCell id="WC510aqXAnlpTj_9Q340-1" value="alt" style="shape=umlFrame;whiteSpace=wrap;html=1;pointerEvents=0;" vertex="1" parent="1">
          <mxGeometry x="235" y="365" width="508" height="174" as="geometry" />
        </mxCell>
        <mxCell id="WC510aqXAnlpTj_9Q340-2" value="" style="line;strokeWidth=1;fillColor=none;align=left;verticalAlign=middle;spacingTop=-1;spacingLeft=3;spacingRight=3;rotatable=0;labelPosition=right;points=[];portConstraint=eastwest;strokeColor=inherit;dashed=1;" vertex="1" parent="1">
          <mxGeometry x="237" y="448" width="506" height="8" as="geometry" />
        </mxCell>
        <mxCell id="Gb-XE1g8QYQe7KRCPSvv-1" value="[Thông tin không tồn tại]" style="text;strokeColor=none;fillColor=none;align=left;verticalAlign=top;spacingLeft=4;spacingRight=4;overflow=hidden;rotatable=0;points=[[0,0.5],[1,0.5]];portConstraint=eastwest;whiteSpace=wrap;html=1;" vertex="1" parent="1">
          <mxGeometry x="237" y="393" width="100" height="45" as="geometry" />
        </mxCell>
        <mxCell id="Gb-XE1g8QYQe7KRCPSvv-2" value="[Thông tin tồn tại]" style="text;strokeColor=none;fillColor=none;align=left;verticalAlign=top;spacingLeft=4;spacingRight=4;overflow=hidden;rotatable=0;points=[[0,0.5],[1,0.5]];portConstraint=eastwest;whiteSpace=wrap;html=1;" vertex="1" parent="1">
          <mxGeometry x="237" y="453" width="100" height="45" as="geometry" />
        </mxCell>
      </root>
    </mxGraphModel>
  </diagram>
  <diagram id="iU-ym_LuLCSBol7zfdRL" name="Thêm danh sách thiết bị">
    <mxGraphModel grid="0" page="0" gridSize="10" guides="1" tooltips="1" connect="1" arrows="1" fold="1" pageScale="1" pageWidth="827" pageHeight="1169" math="0" shadow="0">
      <root>
        <mxCell id="0" />
        <mxCell id="1" parent="0" />
        <mxCell id="_b6SaUoHTBzvFtssbpOh-1" value="" style="shape=umlLifeline;perimeter=lifelinePerimeter;whiteSpace=wrap;html=1;container=1;dropTarget=0;collapsible=0;recursiveResize=0;outlineConnect=0;portConstraint=eastwest;newEdgeStyle={&quot;edgeStyle&quot;:&quot;elbowEdgeStyle&quot;,&quot;elbow&quot;:&quot;vertical&quot;,&quot;curved&quot;:0,&quot;rounded&quot;:0};participant=umlActor;" vertex="1" parent="1">
          <mxGeometry x="190" y="74" width="20" height="543" as="geometry" />
        </mxCell>
        <mxCell id="_b6SaUoHTBzvFtssbpOh-2" value="" style="html=1;points=[];perimeter=orthogonalPerimeter;outlineConnect=0;targetShapes=umlLifeline;portConstraint=eastwest;newEdgeStyle={&quot;edgeStyle&quot;:&quot;elbowEdgeStyle&quot;,&quot;elbow&quot;:&quot;vertical&quot;,&quot;curved&quot;:0,&quot;rounded&quot;:0};" vertex="1" parent="_b6SaUoHTBzvFtssbpOh-1">
          <mxGeometry x="5" y="77" width="10" height="154" as="geometry" />
        </mxCell>
        <mxCell id="_b6SaUoHTBzvFtssbpOh-3" value="" style="shape=umlLifeline;perimeter=lifelinePerimeter;whiteSpace=wrap;html=1;container=1;dropTarget=0;collapsible=0;recursiveResize=0;outlineConnect=0;portConstraint=eastwest;newEdgeStyle={&quot;edgeStyle&quot;:&quot;elbowEdgeStyle&quot;,&quot;elbow&quot;:&quot;vertical&quot;,&quot;curved&quot;:0,&quot;rounded&quot;:0};participant=umlBoundary;" vertex="1" parent="1">
          <mxGeometry x="371" y="74" width="50" height="543" as="geometry" />
        </mxCell>
        <mxCell id="_b6SaUoHTBzvFtssbpOh-4" value="" style="html=1;points=[];perimeter=orthogonalPerimeter;outlineConnect=0;targetShapes=umlLifeline;portConstraint=eastwest;newEdgeStyle={&quot;edgeStyle&quot;:&quot;elbowEdgeStyle&quot;,&quot;elbow&quot;:&quot;vertical&quot;,&quot;curved&quot;:0,&quot;rounded&quot;:0};" vertex="1" parent="_b6SaUoHTBzvFtssbpOh-3">
          <mxGeometry x="20" y="77" width="10" height="100" as="geometry" />
        </mxCell>
        <mxCell id="_b6SaUoHTBzvFtssbpOh-5" value="" style="shape=umlLifeline;perimeter=lifelinePerimeter;whiteSpace=wrap;html=1;container=1;dropTarget=0;collapsible=0;recursiveResize=0;outlineConnect=0;portConstraint=eastwest;newEdgeStyle={&quot;edgeStyle&quot;:&quot;elbowEdgeStyle&quot;,&quot;elbow&quot;:&quot;vertical&quot;,&quot;curved&quot;:0,&quot;rounded&quot;:0};participant=umlEntity;" vertex="1" parent="1">
          <mxGeometry x="965" y="74" width="40" height="544" as="geometry" />
        </mxCell>
        <mxCell id="_b6SaUoHTBzvFtssbpOh-6" value="" style="html=1;points=[];perimeter=orthogonalPerimeter;outlineConnect=0;targetShapes=umlLifeline;portConstraint=eastwest;newEdgeStyle={&quot;edgeStyle&quot;:&quot;elbowEdgeStyle&quot;,&quot;elbow&quot;:&quot;vertical&quot;,&quot;curved&quot;:0,&quot;rounded&quot;:0};" vertex="1" parent="_b6SaUoHTBzvFtssbpOh-5">
          <mxGeometry x="15" y="250" width="10" height="207" as="geometry" />
        </mxCell>
        <mxCell id="DswwlbYv29LPR-TRjOYq-10" value="" style="html=1;points=[];perimeter=orthogonalPerimeter;outlineConnect=0;targetShapes=umlLifeline;portConstraint=eastwest;newEdgeStyle={&quot;edgeStyle&quot;:&quot;elbowEdgeStyle&quot;,&quot;elbow&quot;:&quot;vertical&quot;,&quot;curved&quot;:0,&quot;rounded&quot;:0};" vertex="1" parent="_b6SaUoHTBzvFtssbpOh-5">
          <mxGeometry x="20" y="296" width="10" height="40" as="geometry" />
        </mxCell>
        <mxCell id="DswwlbYv29LPR-TRjOYq-11" value="Kiểm tra thông tin" style="html=1;align=left;spacingLeft=2;endArrow=block;rounded=0;edgeStyle=orthogonalEdgeStyle;curved=0;rounded=0;" edge="1" parent="_b6SaUoHTBzvFtssbpOh-5" target="DswwlbYv29LPR-TRjOYq-10">
          <mxGeometry relative="1" as="geometry">
            <mxPoint x="25" y="276" as="sourcePoint" />
            <Array as="points">
              <mxPoint x="55" y="306" />
            </Array>
          </mxGeometry>
        </mxCell>
        <mxCell id="DswwlbYv29LPR-TRjOYq-12" value="" style="html=1;points=[];perimeter=orthogonalPerimeter;outlineConnect=0;targetShapes=umlLifeline;portConstraint=eastwest;newEdgeStyle={&quot;edgeStyle&quot;:&quot;elbowEdgeStyle&quot;,&quot;elbow&quot;:&quot;vertical&quot;,&quot;curved&quot;:0,&quot;rounded&quot;:0};" vertex="1" parent="_b6SaUoHTBzvFtssbpOh-5">
          <mxGeometry x="20" y="370" width="10" height="40" as="geometry" />
        </mxCell>
        <mxCell id="DswwlbYv29LPR-TRjOYq-13" value="Thêm thông tin danh sách thiết bị" style="html=1;align=left;spacingLeft=2;endArrow=block;rounded=0;edgeStyle=orthogonalEdgeStyle;curved=0;rounded=0;" edge="1" parent="_b6SaUoHTBzvFtssbpOh-5" target="DswwlbYv29LPR-TRjOYq-12">
          <mxGeometry relative="1" as="geometry">
            <mxPoint x="25" y="350" as="sourcePoint" />
            <Array as="points">
              <mxPoint x="55" y="380" />
            </Array>
          </mxGeometry>
        </mxCell>
        <mxCell id="_b6SaUoHTBzvFtssbpOh-7" value="" style="shape=umlLifeline;perimeter=lifelinePerimeter;whiteSpace=wrap;html=1;container=1;dropTarget=0;collapsible=0;recursiveResize=0;outlineConnect=0;portConstraint=eastwest;newEdgeStyle={&quot;edgeStyle&quot;:&quot;elbowEdgeStyle&quot;,&quot;elbow&quot;:&quot;vertical&quot;,&quot;curved&quot;:0,&quot;rounded&quot;:0};participant=umlControl;" vertex="1" parent="1">
          <mxGeometry x="768" y="74" width="40" height="543" as="geometry" />
        </mxCell>
        <mxCell id="_b6SaUoHTBzvFtssbpOh-8" value="" style="html=1;points=[];perimeter=orthogonalPerimeter;outlineConnect=0;targetShapes=umlLifeline;portConstraint=eastwest;newEdgeStyle={&quot;edgeStyle&quot;:&quot;elbowEdgeStyle&quot;,&quot;elbow&quot;:&quot;vertical&quot;,&quot;curved&quot;:0,&quot;rounded&quot;:0};" vertex="1" parent="_b6SaUoHTBzvFtssbpOh-7">
          <mxGeometry x="15" y="234" width="10" height="53" as="geometry" />
        </mxCell>
        <mxCell id="_b6SaUoHTBzvFtssbpOh-10" value="Chọn &quot;Quản lý thiết bị&quot;" style="html=1;verticalAlign=bottom;endArrow=block;edgeStyle=elbowEdgeStyle;elbow=vertical;curved=0;rounded=0;" edge="1" parent="1">
          <mxGeometry width="80" relative="1" as="geometry">
            <mxPoint x="199" y="151" as="sourcePoint" />
            <mxPoint x="393" y="151" as="targetPoint" />
          </mxGeometry>
        </mxCell>
        <mxCell id="_b6SaUoHTBzvFtssbpOh-16" value="Người dùng" style="text;align=center;fontStyle=1;verticalAlign=middle;spacingLeft=3;spacingRight=3;strokeColor=none;rotatable=0;points=[[0,0.5],[1,0.5]];portConstraint=eastwest;html=1;" vertex="1" parent="1">
          <mxGeometry x="160" y="33" width="80" height="26" as="geometry" />
        </mxCell>
        <mxCell id="_b6SaUoHTBzvFtssbpOh-17" value="Homepage" style="text;align=center;fontStyle=1;verticalAlign=middle;spacingLeft=3;spacingRight=3;strokeColor=none;rotatable=0;points=[[0,0.5],[1,0.5]];portConstraint=eastwest;html=1;" vertex="1" parent="1">
          <mxGeometry x="356" y="33" width="80" height="26" as="geometry" />
        </mxCell>
        <mxCell id="_b6SaUoHTBzvFtssbpOh-18" value="Page Quản lý danh sách thiết bị" style="text;align=center;fontStyle=1;verticalAlign=middle;spacingLeft=3;spacingRight=3;strokeColor=none;rotatable=0;points=[[0,0.5],[1,0.5]];portConstraint=eastwest;html=1;" vertex="1" parent="1">
          <mxGeometry x="558" y="33" width="80" height="26" as="geometry" />
        </mxCell>
        <mxCell id="_b6SaUoHTBzvFtssbpOh-19" value="Danh sách thiết bị" style="text;align=center;fontStyle=1;verticalAlign=middle;spacingLeft=3;spacingRight=3;strokeColor=none;rotatable=0;points=[[0,0.5],[1,0.5]];portConstraint=eastwest;html=1;" vertex="1" parent="1">
          <mxGeometry x="945" y="33" width="80" height="26" as="geometry" />
        </mxCell>
        <mxCell id="DswwlbYv29LPR-TRjOYq-1" value="" style="shape=umlLifeline;perimeter=lifelinePerimeter;whiteSpace=wrap;html=1;container=1;dropTarget=0;collapsible=0;recursiveResize=0;outlineConnect=0;portConstraint=eastwest;newEdgeStyle={&quot;edgeStyle&quot;:&quot;elbowEdgeStyle&quot;,&quot;elbow&quot;:&quot;vertical&quot;,&quot;curved&quot;:0,&quot;rounded&quot;:0};participant=umlBoundary;" vertex="1" parent="1">
          <mxGeometry x="573" y="74" width="50" height="543" as="geometry" />
        </mxCell>
        <mxCell id="DswwlbYv29LPR-TRjOYq-2" value="" style="html=1;points=[];perimeter=orthogonalPerimeter;outlineConnect=0;targetShapes=umlLifeline;portConstraint=eastwest;newEdgeStyle={&quot;edgeStyle&quot;:&quot;elbowEdgeStyle&quot;,&quot;elbow&quot;:&quot;vertical&quot;,&quot;curved&quot;:0,&quot;rounded&quot;:0};" vertex="1" parent="DswwlbYv29LPR-TRjOYq-1">
          <mxGeometry x="20" y="166" width="10" height="292" as="geometry" />
        </mxCell>
        <mxCell id="DswwlbYv29LPR-TRjOYq-3" value="Hiển thị list thao tác" style="html=1;verticalAlign=bottom;endArrow=open;dashed=1;endSize=8;edgeStyle=elbowEdgeStyle;elbow=vertical;curved=0;rounded=0;" edge="1" parent="1" source="_b6SaUoHTBzvFtssbpOh-4">
          <mxGeometry relative="1" as="geometry">
            <mxPoint x="361" y="186" as="sourcePoint" />
            <mxPoint x="204" y="186" as="targetPoint" />
          </mxGeometry>
        </mxCell>
        <mxCell id="DswwlbYv29LPR-TRjOYq-4" value="Chọn &quot;Quản lý danh sách thiết bị" style="html=1;verticalAlign=bottom;endArrow=block;edgeStyle=elbowEdgeStyle;elbow=vertical;curved=0;rounded=0;" edge="1" parent="1" target="_b6SaUoHTBzvFtssbpOh-4">
          <mxGeometry width="80" relative="1" as="geometry">
            <mxPoint x="206" y="221" as="sourcePoint" />
            <mxPoint x="286" y="221" as="targetPoint" />
          </mxGeometry>
        </mxCell>
        <mxCell id="DswwlbYv29LPR-TRjOYq-5" value="Chuyển tiếp" style="html=1;verticalAlign=bottom;endArrow=block;edgeStyle=elbowEdgeStyle;elbow=vertical;curved=0;rounded=0;" edge="1" parent="1" source="_b6SaUoHTBzvFtssbpOh-4">
          <mxGeometry width="80" relative="1" as="geometry">
            <mxPoint x="406" y="240" as="sourcePoint" />
            <mxPoint x="593" y="240" as="targetPoint" />
          </mxGeometry>
        </mxCell>
        <mxCell id="DswwlbYv29LPR-TRjOYq-6" value="Thêm danh sách thiét bị" style="html=1;verticalAlign=bottom;endArrow=block;edgeStyle=elbowEdgeStyle;elbow=vertical;curved=0;rounded=0;" edge="1" parent="1" target="DswwlbYv29LPR-TRjOYq-2">
          <mxGeometry width="80" relative="1" as="geometry">
            <mxPoint x="205" y="285" as="sourcePoint" />
            <mxPoint x="285" y="285" as="targetPoint" />
          </mxGeometry>
        </mxCell>
        <mxCell id="DswwlbYv29LPR-TRjOYq-8" value="Thêm danh sách thiết bị" style="html=1;verticalAlign=bottom;endArrow=block;edgeStyle=elbowEdgeStyle;elbow=vertical;curved=0;rounded=0;" edge="1" parent="1">
          <mxGeometry width="80" relative="1" as="geometry">
            <mxPoint x="605" y="307" as="sourcePoint" />
            <mxPoint x="785" y="308" as="targetPoint" />
          </mxGeometry>
        </mxCell>
        <mxCell id="DswwlbYv29LPR-TRjOYq-9" value="Thêm danh sách thiết bị" style="html=1;verticalAlign=bottom;endArrow=block;edgeStyle=elbowEdgeStyle;elbow=vertical;curved=0;rounded=0;entryX=0.1;entryY=0;entryDx=0;entryDy=0;entryPerimeter=0;" edge="1" parent="1" target="_b6SaUoHTBzvFtssbpOh-6">
          <mxGeometry width="80" relative="1" as="geometry">
            <mxPoint x="795" y="323" as="sourcePoint" />
            <mxPoint x="975" y="324" as="targetPoint" />
          </mxGeometry>
        </mxCell>
        <mxCell id="DswwlbYv29LPR-TRjOYq-14" value="Thông báo thêm thành công" style="html=1;verticalAlign=bottom;endArrow=open;dashed=1;endSize=8;edgeStyle=elbowEdgeStyle;elbow=vertical;curved=0;rounded=0;" edge="1" parent="1">
          <mxGeometry relative="1" as="geometry">
            <mxPoint x="979" y="504" as="sourcePoint" />
            <mxPoint x="602" y="504" as="targetPoint" />
          </mxGeometry>
        </mxCell>
        <mxCell id="DswwlbYv29LPR-TRjOYq-15" value="Back-end" style="text;align=center;fontStyle=1;verticalAlign=middle;spacingLeft=3;spacingRight=3;strokeColor=none;rotatable=0;points=[[0,0.5],[1,0.5]];portConstraint=eastwest;html=1;" vertex="1" parent="1">
          <mxGeometry x="748" y="33" width="80" height="26" as="geometry" />
        </mxCell>
      </root>
    </mxGraphModel>
  </diagram>
  <diagram id="S5sxbObRKCMuENLMo2ml" name="Đăng kí hoạt động">
    <mxGraphModel grid="0" page="0" gridSize="10" guides="1" tooltips="1" connect="1" arrows="1" fold="1" pageScale="1" pageWidth="827" pageHeight="1169" math="0" shadow="0">
      <root>
        <mxCell id="0" />
        <mxCell id="1" parent="0" />
      </root>
    </mxGraphModel>
  </diagram>
  <diagram id="t3Wwml_5fpML9LA2Gs79" name="Page-6">
    <mxGraphModel grid="0" page="0" gridSize="10" guides="1" tooltips="1" connect="1" arrows="1" fold="1" pageScale="1" pageWidth="827" pageHeight="1169" math="0" shadow="0">
      <root>
        <mxCell id="0" />
        <mxCell id="1" parent="0" />
      </root>
    </mxGraphModel>
  </diagram>
</mxfile>
